# xmcd
#
# Track frame offsets: 
#        150
#        14140
#        24593
#        41704
#        55716
#        79515
#        90604
#        107231
#        120955
#        134154
#        147717
#        159459
#        172663
#        194519
#        203755
#        216250
#
# Disc length: 3093 seconds
#
# Revision: 0
# Processed by: cddbd v1.5.2PL0 Copyright (c) Steve Scherf et al.
# Submitted via: ExactAudioCopy v1.0b3
#
DISCID=e30c1310
DTITLE=Eric Clapton and Friends - The Breeze (An Appreciation of JJ Cale
DTITLE=)
DYEAR=2014
DGENRE=Blues
TTITLE0=Call Me The Breeze
TTITLE1=Rock And Roll Records (feat. Tom Petty)
TTITLE2=Someday (feat. Mark Knopfler)
TTITLE3=Lies (feat. John Mayer)
TTITLE4=Sensitive Kind (feat. Don White)
TTITLE5=Cajun Moon
TTITLE6=Magnolia (feat. John Mayer)
TTITLE7=I Got The Same Old Blues (feat. Tom Petty)
TTITLE8=Songbird (feat. Willie Nelson)
TTITLE9=Since You Said Goodbye
TTITLE10=I'll Be There (If You Ever Want Me) (feat. Don White)
TTITLE11=The Old Man And Me (feat. Tom Petty)
TTITLE12=Train To Nowhere (feat. Mark Knopfler and Don White)
TTITLE13=Starbound (feat. Willie Nelson and Derek Trucks)
TTITLE14=Don't Wait (feat. John Mayer)
TTITLE15=Crying Eyes (feat. Christine Lakeland and Derek Trucks)
EXTD=
EXTT0=
EXTT1=
EXTT2=
EXTT3=
EXTT4=
EXTT5=
EXTT6=
EXTT7=
EXTT8=
EXTT9=
EXTT10=
EXTT11=
EXTT12=
EXTT13=
EXTT14=
EXTT15=
PLAYORDER=
